<?xml version="1.0" encoding="utf-8"?>
<svg viewBox="0 0 50 50" xmlns="http://www.w3.org/2000/svg">
  <g transform="matrix(2.499999, 0, 0, 2.499999, -124.999954, -149.882446)">
    <rect style="fill: rgb(216, 216, 216);" x="50" y="59.953" width="20" height="20"/>
    <rect x="53" y="62.953" width="14" height="14" style="fill: rgb(103, 161, 192);"/>
    <polygon id="gearpoly0" data-id="0" class="gear" stroke-width="1" stroke-miterlimit="10" points="63.877 69.975 64.31 69.975 64.313 69.975 64.317 69.974 64.323 69.974 64.331 69.972 64.34 69.971 64.353 69.97 64.365 69.968 64.379 69.966 64.396 69.962 64.415 69.958 64.435 69.954 64.456 69.948 64.48 69.941 64.505 69.934 64.531 69.926 64.559 69.916 64.589 69.905 64.62 69.892 64.653 69.878 64.685 69.864 64.721 69.847 64.758 69.828 64.795 69.808 64.835 69.788 64.875 69.766 64.915 69.74 64.957 69.714 65 69.686 65 69.658 64.964 69.291 64.958 69.265 64.911 69.246 64.865 69.228 64.819 69.211 64.775 69.198 64.733 69.184 64.693 69.172 64.653 69.162 64.615 69.152 64.579 69.144 64.545 69.138 64.513 69.131 64.481 69.127 64.452 69.122 64.424 69.118 64.398 69.117 64.374 69.115 64.352 69.114 64.331 69.113 64.313 69.112 64.295 69.113 64.279 69.113 64.266 69.114 64.255 69.115 64.245 69.116 64.237 69.117 64.232 69.118 64.227 69.118 64.225 69.118 63.8 69.205 63.615 68.57 64.019 68.413 64.022 68.412 64.025 68.41 64.031 68.408 64.038 68.405 64.046 68.4 64.056 68.395 64.068 68.388 64.081 68.38 64.095 68.371 64.112 68.361 64.128 68.348 64.146 68.335 64.165 68.321 64.186 68.306 64.208 68.288 64.231 68.268 64.255 68.248 64.278 68.225 64.304 68.2 64.329 68.174 64.357 68.146 64.385 68.116 64.413 68.084 64.441 68.049 64.469 68.014 64.499 67.976 64.528 67.936 64.558 67.894 64.548 67.868 64.383 67.539 64.368 67.517 64.316 67.516 64.266 67.516 64.218 67.518 64.173 67.519 64.128 67.523 64.086 67.527 64.046 67.531 64.007 67.536 63.971 67.541 63.936 67.548 63.904 67.555 63.873 67.561 63.845 67.568 63.817 67.576 63.793 67.581 63.768 67.588 63.747 67.596 63.728 67.603 63.711 67.609 63.695 67.616 63.681 67.621 63.668 67.627 63.658 67.631 63.649 67.636 63.643 67.639 63.637 67.643 63.633 67.646 63.631 67.646 63.265 67.88 62.865 67.356 63.185 67.064 63.187 67.062 63.191 67.058 63.195 67.054 63.2 67.048 63.205 67.041 63.215 67.032 63.223 67.022 63.232 67.009 63.242 66.996 63.253 66.98 63.265 66.964 63.276 66.945 63.289 66.924 63.303 66.901 63.315 66.878 63.331 66.851 63.345 66.822 63.359 66.792 63.375 66.761 63.389 66.728 63.405 66.691 63.419 66.654 63.433 66.613 63.447 66.571 63.462 66.528 63.475 66.481 63.489 66.433 63.502 66.383 63.483 66.363 63.21 66.118 63.188 66.1 63.139 66.118 63.094 66.138 63.049 66.156 63.007 66.175 62.967 66.193 62.929 66.212 62.894 66.23 62.859 66.249 62.827 66.268 62.796 66.286 62.769 66.305 62.743 66.321 62.718 66.338 62.695 66.355 62.675 66.37 62.655 66.386 62.638 66.399 62.623 66.412 62.608 66.426 62.595 66.437 62.585 66.448 62.575 66.457 62.567 66.466 62.561 66.472 62.555 66.478 62.553 66.483 62.549 66.487 62.548 66.488 62.293 66.838 61.729 66.496 61.923 66.106 61.924 66.104 61.925 66.1 61.928 66.095 61.931 66.087 61.934 66.078 61.938 66.067 61.942 66.055 61.945 66.039 61.951 66.024 61.955 66.006 61.959 65.986 61.965 65.962 61.968 65.938 61.973 65.912 61.978 65.886 61.981 65.856 61.985 65.825 61.987 65.791 61.989 65.756 61.991 65.718 61.993 65.68 61.993 65.639 61.992 65.598 61.989 65.552 61.987 65.506 61.983 65.458 61.978 65.409 61.973 65.358 61.947 65.346 61.605 65.215 61.577 65.208 61.539 65.242 61.503 65.276 61.468 65.308 61.435 65.342 61.405 65.374 61.376 65.406 61.35 65.436 61.325 65.466 61.302 65.495 61.28 65.522 61.26 65.548 61.242 65.575 61.225 65.599 61.21 65.624 61.195 65.646 61.185 65.666 61.173 65.686 61.162 65.704 61.155 65.721 61.146 65.736 61.141 65.749 61.135 65.762 61.131 65.773 61.127 65.781 61.125 65.789 61.123 65.796 61.121 65.798 61.121 65.801 61.008 66.221 60.359 66.104 60.399 65.671 60.399 65.668 60.4 65.666 60.4 65.658 60.4 65.651 60.4 65.641 60.399 65.629 60.398 65.616 60.397 65.601 60.395 65.585 60.394 65.566 60.391 65.545 60.387 65.522 60.383 65.498 60.377 65.473 60.372 65.446 60.365 65.418 60.355 65.386 60.347 65.354 60.336 65.32 60.325 65.286 60.312 65.249 60.297 65.21 60.281 65.172 60.263 65.131 60.244 65.088 60.223 65.046 60.201 65.001 60.176 64.956 60.149 64.953 59.783 64.956 59.755 64.958 59.731 65.005 59.709 65.049 59.689 65.093 59.671 65.136 59.654 65.177 59.638 65.216 59.625 65.254 59.613 65.291 59.601 65.326 59.591 65.359 59.582 65.392 59.574 65.423 59.567 65.452 59.562 65.478 59.556 65.505 59.553 65.528 59.549 65.551 59.546 65.571 59.545 65.591 59.543 65.608 59.543 65.622 59.542 65.636 59.541 65.648 59.541 65.658 59.542 65.666 59.542 65.671 59.542 65.676 59.543 65.678 59.588 66.11 58.942 66.236 58.824 65.818 58.823 65.816 58.821 65.811 58.819 65.806 58.815 65.798 58.813 65.79 58.808 65.779 58.803 65.768 58.795 65.753 58.788 65.738 58.779 65.721 58.769 65.703 58.758 65.684 58.745 65.663 58.731 65.641 58.715 65.618 58.698 65.594 58.68 65.568 58.659 65.541 58.638 65.514 58.615 65.486 58.588 65.456 58.561 65.426 58.533 65.396 58.502 65.364 58.468 65.331 58.434 65.298 58.396 65.266 58.357 65.232 58.331 65.238 57.989 65.374 57.965 65.388 57.959 65.438 57.955 65.488 57.953 65.536 57.951 65.582 57.949 65.627 57.949 65.668 57.951 65.709 57.952 65.748 57.954 65.786 57.956 65.821 57.959 65.854 57.964 65.886 57.967 65.916 57.973 65.942 57.977 65.968 57.983 65.992 57.987 66.014 57.993 66.034 57.996 66.052 58.002 66.068 58.005 66.082 58.011 66.096 58.015 66.107 58.018 66.116 58.021 66.123 58.023 66.128 58.025 66.132 58.025 66.136 58.225 66.521 57.667 66.873 57.405 66.526 57.405 66.524 57.403 66.521 57.397 66.517 57.393 66.51 57.385 66.503 57.377 66.496 57.368 66.486 57.357 66.476 57.345 66.464 57.331 66.451 57.315 66.438 57.297 66.425 57.277 66.409 57.256 66.395 57.235 66.378 57.209 66.362 57.183 66.346 57.155 66.328 57.124 66.31 57.091 66.291 57.057 66.273 57.021 66.256 56.983 66.238 56.943 66.218 56.9 66.2 56.855 66.182 56.809 66.166 56.76 66.148 56.738 66.165 56.469 66.415 56.451 66.436 56.465 66.486 56.478 66.532 56.493 66.578 56.507 66.622 56.523 66.664 56.537 66.704 56.553 66.741 56.568 66.778 56.584 66.81 56.599 66.842 56.615 66.872 56.629 66.9 56.644 66.927 56.658 66.95 56.671 66.972 56.685 66.993 56.697 67.012 56.708 67.028 56.719 67.044 56.73 67.058 56.739 67.068 56.748 67.079 56.755 67.088 56.762 67.096 56.768 67.101 56.772 67.106 56.775 67.108 56.776 67.11 57.101 67.398 56.708 67.928 56.339 67.699 56.337 67.698 56.334 67.696 56.328 67.694 56.322 67.69 56.313 67.686 56.303 67.68 56.289 67.676 56.275 67.67 56.259 67.664 56.243 67.658 56.223 67.651 56.202 67.645 56.178 67.638 56.153 67.631 56.125 67.625 56.096 67.618 56.065 67.611 56.033 67.606 55.998 67.6 55.962 67.596 55.923 67.59 55.882 67.588 55.841 67.584 55.796 67.581 55.751 67.58 55.703 67.579 55.653 67.579 55.602 67.581 55.587 67.605 55.425 67.936 55.415 67.961 55.446 68.002 55.477 68.042 55.506 68.08 55.535 68.116 55.565 68.148 55.594 68.18 55.622 68.209 55.648 68.238 55.675 68.263 55.701 68.288 55.725 68.31 55.749 68.331 55.773 68.349 55.795 68.367 55.815 68.382 55.835 68.397 55.853 68.409 55.871 68.421 55.885 68.431 55.901 68.44 55.914 68.448 55.925 68.455 55.935 68.46 55.945 68.464 55.952 68.468 55.957 68.47 55.961 68.471 55.963 68.472 56.369 68.624 56.194 69.26 55.768 69.181 55.765 69.18 55.761 69.179 55.755 69.178 55.747 69.178 55.738 69.178 55.725 69.178 55.713 69.177 55.697 69.177 55.681 69.177 55.662 69.178 55.641 69.178 55.618 69.178 55.595 69.181 55.568 69.185 55.541 69.188 55.513 69.192 55.481 69.198 55.448 69.204 55.415 69.211 55.377 69.22 55.34 69.23 55.301 69.24 55.261 69.253 55.218 69.268 55.175 69.282 55.13 69.298 55.085 69.318 55.036 69.338 55.032 69.365 55 69.731 55.001 69.758 55.045 69.786 55.086 69.812 55.127 69.836 55.168 69.858 55.207 69.88 55.245 69.898 55.283 69.916 55.317 69.932 55.351 69.947 55.385 69.96 55.415 69.971 55.445 69.982 55.473 69.991 55.499 70 55.525 70.008 55.548 70.014 55.57 70.018 55.59 70.022 55.607 70.027 55.625 70.029 55.64 70.032 55.653 70.034 55.665 70.036 55.675 70.036 55.683 70.037 55.688 70.038 55.693 70.038 55.695 70.038 56.128 70.031 56.194 70.688 55.768 70.768 55.765 70.768 55.762 70.771 55.755 70.772 55.748 70.774 55.738 70.777 55.728 70.78 55.715 70.785 55.701 70.789 55.685 70.797 55.668 70.804 55.648 70.812 55.628 70.821 55.606 70.832 55.584 70.844 55.559 70.858 55.533 70.872 55.506 70.888 55.478 70.907 55.449 70.926 55.418 70.948 55.387 70.969 55.355 70.994 55.321 71.02 55.286 71.048 55.252 71.078 55.215 71.109 55.179 71.144 55.143 71.179 55.147 71.208 55.251 71.56 55.261 71.586 55.311 71.596 55.36 71.605 55.408 71.611 55.453 71.618 55.497 71.624 55.539 71.628 55.58 71.631 55.618 71.633 55.655 71.634 55.691 71.634 55.724 71.634 55.755 71.633 55.785 71.631 55.813 71.629 55.838 71.628 55.863 71.625 55.885 71.621 55.905 71.618 55.924 71.616 55.941 71.612 55.955 71.608 55.968 71.606 55.979 71.603 55.989 71.6 55.996 71.598 56.003 71.596 56.006 71.596 56.008 71.594 56.41 71.431 56.708 72.021 56.339 72.249 56.337 72.25 56.335 72.253 56.329 72.257 56.323 72.261 56.315 72.268 56.306 72.275 56.296 72.283 56.285 72.293 56.273 72.306 56.258 72.318 56.245 72.332 56.228 72.348 56.213 72.368 56.195 72.387 56.177 72.408 56.158 72.431 56.139 72.456 56.119 72.482 56.099 72.511 56.078 72.542 56.057 72.576 56.035 72.608 56.014 72.646 55.993 72.684 55.969 72.726 55.948 72.768 55.926 72.812 55.905 72.858 55.919 72.882 56.143 73.175 56.162 73.196 56.213 73.187 56.261 73.178 56.307 73.167 56.353 73.156 56.395 73.145 56.435 73.134 56.475 73.121 56.511 73.109 56.545 73.098 56.579 73.086 56.61 73.072 56.639 73.06 56.667 73.048 56.693 73.037 56.715 73.025 56.736 73.014 56.755 73.002 56.775 72.992 56.79 72.982 56.805 72.974 56.818 72.966 56.828 72.958 56.838 72.951 56.845 72.946 56.852 72.94 56.855 72.937 56.859 72.934 56.861 72.932 57.177 72.634 57.667 73.077 57.405 73.422 57.405 73.425 57.403 73.428 57.399 73.434 57.395 73.44 57.39 73.448 57.385 73.458 57.377 73.47 57.371 73.484 57.363 73.499 57.355 73.516 57.347 73.536 57.339 73.556 57.33 73.578 57.321 73.603 57.312 73.63 57.303 73.658 57.295 73.688 57.285 73.72 57.275 73.755 57.267 73.79 57.26 73.828 57.253 73.868 57.245 73.91 57.239 73.955 57.233 74 57.227 74.048 57.224 74.098 57.22 74.149 57.243 74.166 57.555 74.358 57.581 74.369 57.625 74.343 57.666 74.316 57.706 74.29 57.745 74.264 57.781 74.238 57.815 74.212 57.845 74.188 57.876 74.162 57.905 74.138 57.931 74.116 57.955 74.092 57.978 74.07 57.998 74.049 58.018 74.029 58.035 74.01 58.052 73.991 58.065 73.976 58.079 73.958 58.091 73.944 58.101 73.929 58.109 73.918 58.117 73.906 58.124 73.897 58.128 73.888 58.133 73.881 58.135 73.876 58.138 73.872 58.138 73.87 58.326 73.478 58.942 73.713 58.824 74.131 58.823 74.132 58.822 74.138 58.821 74.143 58.819 74.151 58.817 74.161 58.815 74.172 58.815 74.186 58.813 74.201 58.811 74.218 58.81 74.237 58.809 74.257 58.808 74.279 58.808 74.304 58.809 74.33 58.81 74.358 58.812 74.388 58.815 74.419 58.817 74.452 58.822 74.488 58.826 74.524 58.833 74.562 58.841 74.602 58.849 74.644 58.859 74.688 58.869 74.732 58.883 74.778 58.895 74.826 58.912 74.876 58.938 74.883 59.299 74.948 59.326 74.95 59.357 74.909 59.388 74.869 59.415 74.83 59.442 74.792 59.465 74.756 59.488 74.718 59.508 74.684 59.528 74.65 59.545 74.618 59.562 74.587 59.576 74.557 59.59 74.528 59.602 74.5 59.613 74.474 59.622 74.45 59.63 74.428 59.637 74.406 59.644 74.387 59.649 74.368 59.654 74.352 59.658 74.338 59.661 74.324 59.663 74.312 59.665 74.302 59.665 74.296 59.666 74.289 59.667 74.286 59.668 74.282 59.702 73.849 60.359 73.845 60.399 74.278 60.4 74.279 60.401 74.284 60.403 74.29 60.403 74.298 60.405 74.308 60.408 74.318 60.411 74.331 60.415 74.347 60.419 74.362 60.425 74.381 60.433 74.4 60.439 74.421 60.448 74.444 60.458 74.468 60.469 74.494 60.482 74.521 60.495 74.55 60.51 74.578 60.525 74.611 60.545 74.642 60.565 74.676 60.585 74.711 60.608 74.748 60.633 74.784 60.659 74.821 60.688 74.859 60.718 74.899 60.75 74.939 60.778 74.938 61.137 74.868 61.165 74.858 61.179 74.808 61.193 74.761 61.205 74.716 61.215 74.67 61.224 74.627 61.232 74.586 61.238 74.546 61.245 74.507 61.248 74.469 61.253 74.435 61.255 74.401 61.257 74.37 61.258 74.34 61.259 74.311 61.259 74.286 61.259 74.261 61.257 74.238 61.256 74.218 61.255 74.199 61.254 74.182 61.252 74.168 61.25 74.155 61.247 74.142 61.245 74.133 61.245 74.126 61.244 74.119 61.243 74.116 61.242 74.112 61.116 73.697 61.729 73.454 61.923 73.843 61.924 73.846 61.925 73.848 61.928 73.854 61.933 73.86 61.938 73.868 61.945 73.878 61.953 73.889 61.961 73.901 61.972 73.916 61.983 73.929 61.996 73.946 62.012 73.962 62.028 73.98 62.045 74 62.065 74.019 62.086 74.041 62.109 74.062 62.134 74.085 62.161 74.108 62.189 74.131 62.219 74.156 62.253 74.18 62.285 74.206 62.323 74.23 62.361 74.256 62.401 74.281 62.444 74.308 62.488 74.334 62.513 74.321 62.824 74.126 62.845 74.108 62.841 74.057 62.835 74.008 62.83 73.958 62.824 73.914 62.815 73.87 62.809 73.828 62.801 73.788 62.792 73.75 62.783 73.714 62.775 73.68 62.765 73.648 62.755 73.618 62.745 73.589 62.735 73.564 62.726 73.538 62.717 73.517 62.709 73.496 62.7 73.478 62.693 73.46 62.685 73.446 62.678 73.431 62.671 73.419 62.665 73.409 62.659 73.401 62.655 73.395 62.653 73.389 62.649 73.386 62.648 73.384 62.383 73.041 62.865 72.592 63.185 72.886 63.188 72.888 63.191 72.889 63.195 72.894 63.203 72.898 63.21 72.904 63.219 72.911 63.23 72.918 63.244 72.927 63.257 72.936 63.275 72.945 63.292 72.955 63.312 72.966 63.333 72.977 63.356 72.988 63.382 72.998 63.41 73.011 63.439 73.022 63.47 73.034 63.503 73.046 63.538 73.058 63.575 73.068 63.615 73.08 63.655 73.092 63.698 73.102 63.743 73.112 63.79 73.121 63.838 73.13 63.89 73.138 63.908 73.118 64.127 72.822 64.142 72.798 64.119 72.752 64.096 72.708 64.075 72.666 64.052 72.626 64.029 72.588 64.007 72.551 63.985 72.517 63.964 72.484 63.943 72.454 63.922 72.426 63.901 72.399 63.882 72.376 63.863 72.351 63.845 72.33 63.826 72.311 63.81 72.293 63.795 72.278 63.779 72.262 63.765 72.25 63.753 72.238 63.742 72.228 63.732 72.22 63.723 72.213 63.715 72.208 63.708 72.202 63.703 72.198 63.7 72.197 63.697 72.196 63.325 71.971 63.615 71.378 64.019 71.536 64.022 71.536 64.025 71.538 64.032 71.539 64.038 71.541 64.048 71.544 64.059 71.547 64.073 71.549 64.088 71.553 64.105 71.556 64.123 71.558 64.143 71.561 64.165 71.564 64.189 71.566 64.215 71.568 64.243 71.57 64.273 71.57 64.305 71.571 64.338 71.571 64.373 71.57 64.409 71.568 64.448 71.566 64.489 71.561 64.531 71.558 64.575 71.551 64.62 71.545 64.668 71.536 64.715 71.527 64.766 71.516 64.776 71.49 64.875 71.136 64.879 71.108 64.842 71.073 64.805 71.039 64.768 71.008 64.733 70.978 64.698 70.951 64.665 70.926 64.632 70.901 64.599 70.878 64.569 70.858 64.539 70.841 64.511 70.822 64.484 70.808 64.458 70.792 64.433 70.778 64.409 70.768 64.388 70.758 64.368 70.748 64.348 70.738 64.331 70.732 64.315 70.727 64.301 70.721 64.287 70.718 64.277 70.714 64.268 70.71 64.26 70.708 64.255 70.708 64.25 70.707 64.248 70.706 63.821 70.632" style="fill: rgb(68, 68, 68);"/>
  </g>
</svg>
